<?xml version="1.0" encoding="UTF-8"?>
<svg xmlns="http://www.w3.org/2000/svg" width="1156" height="652" version="1.1" viewBox="0 0 1156 652">
  <defs>
    <style>
      .cls-1 {
        fill: #fff;
      }

      .cls-2 {
        fill: #c00;
      }
    </style>
  </defs>
  <!-- Generator: Adobe Illustrator 28.6.0, SVG Export Plug-In . SVG Version: 1.2.0 Build 709)  -->
  <g>
    <g id="_レイヤー_1" data-name="レイヤー_1">
      <rect class="cls-1" width="1156" height="652"/>
      <g>
        <path class="cls-2" d="M772.4,362.7v-10.3l10.4-1.2c3.6-.4,5.2-3.7,5.6-4.5l26-42.4c2.1-3.3,0-6.3-2.7-6.6l-13.7-1.6v-10.5h59.3c3.3,0,5.4,2.3,6.8,4.3l34.6,53c2.7,4.3,4.8,7.6,8.3,8l10.9,1.2v10.6h-66.6v-10.4l8.5-1c4.1-.5,7.4-2.3,4.1-7.3l-3.2-4.8h-47.3l-3.6,5.9c-2.3,3.6,0,5.8,3.5,6.2l8.5,1v10.4h-49.3M821.9,325.5h29.9l-15.1-23.8-14.8,23.8"/>
        <path class="cls-2" d="M728.2,285.6h-76.2v10.5l9.6,1c3.5.5,5,3.1,5,6.6v41.5c0,2.9-1.2,5.6-4.4,6.1l-10.2,1.3v10.1h76.3c35.1,0,50.2-17,50.2-39.6s-15.1-37.4-50.2-37.4M716.5,347.9h-19.7v-47.6h19.7c18.7,0,26.6,4.4,26.6,23.7s-7.9,23.8-26.6,23.8"/>
        <path class="cls-2" d="M238,362.7h61.7v-10.3l-10.6-1.2c-2.4-.3-4.8-1.8-4.8-7v-12.4h47.5v11.8c0,3.5-.6,6.8-4.7,7.3l-10.7,1.2v10.6h61.7v-10.6l-10.9-1.2c-2.1-.3-4.5-2-4.5-6.4v-40.1c0-4.1,1.5-6.8,4.7-7.1l10.7-1.2v-10.5h-61.7v10.4l10.7,1.4c3.6.5,4.7,3.3,4.7,7.1v12h-47.5v-12.1c0-4.6,1.8-6.7,5-7l10.4-1.2v-10.5h-61.6v10.5l10.3,1.2c4.1.5,5.1,3.5,5,7.4v39.1c0,4.4-1.2,7-5.1,7.4l-10.3,1.2v10.3"/>
        <path class="cls-2" d="M381,323.8c0-24.2,19.5-41.2,63-41.2s62.8,17,62.8,41.2-19.5,41.6-62.8,41.6-63-16.8-63-41.6M443.9,297.4c-17.5,0-27.5,6.5-27.5,26.5s10,26.8,27.5,26.8,27.5-6.5,27.5-26.8-10-26.5-27.5-26.5"/>
        <path class="cls-2" d="M510.3,362.7h49.3v-10.3l-10.6-1.2c-3-.3-4.8-2.9-4.8-6.4v-39.2l41,54.1c1.4,1.8,3.9,3,6.4,3h38.7v-58.4c0-2.8.7-6.5,4.7-7l10.7-1.2v-10.5h-49.3v10.4l10.8,1.4c3.8.5,4.7,3.6,4.7,7.2v38.2l-40.7-53.8c-1.5-2-3.5-3.4-6.3-3.4h-54.4v10.5l10.3,1.2c3.6.5,5,2.4,5,7.4v39.1c0,4.6-1.3,6.8-5.1,7.4l-10.1,1.2v10.3"/>
      </g>
    </g>
  </g>
</svg>